{
	"asset":{
		"version":"2.0",
		"generator":"Created using the official Cinema 4D glTF Exporter 1.000x284978"
	},
	"scenes":[{
		"nodes":[0]
	}],
	"nodes":[{
		"name":"Null",
		"children":[1,
		5,
		6],
		"translation":[0,
		2.5,
		0],
		"rotation":[0,
		0,
		0,
		-1],
		"scale":[1,
		1,
		1]
	},
	{
		"name":"Subdivision Surface",
		"children":[2],
		"translation":[0.022,
		8.054,
		0],
		"rotation":[0,
		0,
		0,
		-1],
		"scale":[1,
		1,
		1]
	},
	{
		"name":"Outer",
		"children":[3],
		"translation":[-0.089,
		22.231,
		0],
		"rotation":[0,
		0,
		0,
		-1],
		"scale":[1,
		1,
		1],
		"mesh":0
	},
	{
		"name":"inner.1",
		"children":[4],
		"translation":[0.087,
		-0.202,
		0],
		"rotation":[0,
		0,
		0,
		-1],
		"scale":[1,
		1,
		1]
	},
	{
		"name":"inner.1",
		"mesh":1
	},
	{
		"name":"W",
		"translation":[0.022,
		50.393,
		0],
		"rotation":[0,
		0,
		0,
		-1],
		"scale":[1,
		1,
		1],
		"mesh":2
	},
	{
		"name":"Disc",
		"translation":[0.022,
		48.931,
		0],
		"rotation":[0,
		0,
		0,
		-1],
		"scale":[1,
		1,
		1],
		"mesh":3
	}],
	"meshes":[{
		"primitives":[{
			"attributes":{
				"POSITION":1,
				"NORMAL":2,
				"TEXCOORD_0":3
			},
			"indices":0,
			"material":0
		}]
	},
	{
		"primitives":[{
			"attributes":{
				"POSITION":5,
				"NORMAL":6,
				"TEXCOORD_0":7
			},
			"indices":4,
			"material":1
		}]
	},
	{
		"primitives":[{
			"attributes":{
				"POSITION":9,
				"NORMAL":10,
				"TEXCOORD_0":11
			},
			"indices":8,
			"material":2
		}]
	},
	{
		"primitives":[{
			"attributes":{
				"POSITION":13,
				"NORMAL":14,
				"TEXCOORD_0":15
			},
			"indices":12,
			"material":3
		}]
	}],
	"accessors":[{
		"bufferView":0,
		"type":"SCALAR",
		"componentType":5123,
		"count":39168,
		"byteOffset":0,
		"min":[0],
		"max":[7932]
	},
	{
		"bufferView":1,
		"type":"VEC3",
		"componentType":5126,
		"count":7933,
		"byteOffset":0,
		"min":[-32.872,
		-29.027,
		-32.872],
		"max":[32.872,
		23.934,
		32.872]
	},
	{
		"bufferView":1,
		"type":"VEC3",
		"componentType":5126,
		"count":7933,
		"byteOffset":12,
		"min":[-1,
		-1,
		-1],
		"max":[1,
		1,
		1]
	},
	{
		"bufferView":1,
		"type":"VEC2",
		"componentType":5126,
		"count":7933,
		"byteOffset":24,
		"min":[0,
		0],
		"max":[1,
		1]
	},
	{
		"bufferView":2,
		"type":"SCALAR",
		"componentType":5123,
		"count":147456,
		"byteOffset":0,
		"min":[0],
		"max":[25343]
	},
	{
		"bufferView":3,
		"type":"VEC3",
		"componentType":5126,
		"count":25344,
		"byteOffset":0,
		"min":[-22.635,
		-23.37,
		-22.635],
		"max":[22.635,
		23.384,
		22.635]
	},
	{
		"bufferView":3,
		"type":"VEC3",
		"componentType":5126,
		"count":25344,
		"byteOffset":12,
		"min":[-1,
		-1,
		-1],
		"max":[1,
		1,
		1]
	},
	{
		"bufferView":3,
		"type":"VEC2",
		"componentType":5126,
		"count":25344,
		"byteOffset":24,
		"min":[0,
		0],
		"max":[1,
		1]
	},
	{
		"bufferView":4,
		"type":"SCALAR",
		"componentType":5123,
		"count":1188,
		"byteOffset":0,
		"min":[0],
		"max":[242]
	},
	{
		"bufferView":5,
		"type":"VEC3",
		"componentType":5126,
		"count":243,
		"byteOffset":0,
		"min":[-0.669,
		-3.829,
		-0.516],
		"max":[0.877,
		9.22,
		1.379]
	},
	{
		"bufferView":5,
		"type":"VEC3",
		"componentType":5126,
		"count":243,
		"byteOffset":12,
		"min":[-1,
		-1,
		-0.999],
		"max":[1,
		0.448,
		0.99]
	},
	{
		"bufferView":5,
		"type":"VEC2",
		"componentType":5126,
		"count":243,
		"byteOffset":24,
		"min":[0,
		0],
		"max":[1,
		1]
	},
	{
		"bufferView":6,
		"type":"SCALAR",
		"componentType":5123,
		"count":1080,
		"byteOffset":0,
		"min":[0],
		"max":[192]
	},
	{
		"bufferView":7,
		"type":"VEC3",
		"componentType":5126,
		"count":193,
		"byteOffset":0,
		"min":[-17.771,
		0,
		-17.771],
		"max":[17.771,
		0,
		17.771]
	},
	{
		"bufferView":7,
		"type":"VEC3",
		"componentType":5126,
		"count":193,
		"byteOffset":12,
		"min":[0,
		1,
		0],
		"max":[0,
		1,
		0]
	},
	{
		"bufferView":7,
		"type":"VEC2",
		"componentType":5126,
		"count":193,
		"byteOffset":24,
		"min":[0,
		0],
		"max":[1,
		1]
	}],
	"bufferViews":[{
		"buffer":0,
		"byteOffset":0,
		"byteLength":78336,
		"target":34963
	},
	{
		"buffer":0,
		"byteOffset":78336,
		"byteLength":253856,
		"target":34962,
		"byteStride":32
	},
	{
		"buffer":1,
		"byteOffset":0,
		"byteLength":294912,
		"target":34963
	},
	{
		"buffer":1,
		"byteOffset":294912,
		"byteLength":811008,
		"target":34962,
		"byteStride":32
	},
	{
		"buffer":2,
		"byteOffset":0,
		"byteLength":2376,
		"target":34963
	},
	{
		"buffer":2,
		"byteOffset":2376,
		"byteLength":7776,
		"target":34962,
		"byteStride":32
	},
	{
		"buffer":3,
		"byteOffset":0,
		"byteLength":2160,
		"target":34963
	},
	{
		"buffer":3,
		"byteOffset":2160,
		"byteLength":6176,
		"target":34962,
		"byteStride":32
	}],
	"buffers":[{
		"uri":"data:application/octet-stream;base64,",
		"byteLength":332192
	},
	{
		"uri":"data:application/octet-stream;base64,",
		"byteLength":1105920
	},
	{
		"uri":"data:application/octet-stream;base64,",
		"byteLength":10152
	},
	{
		"uri":"data:application/octet-stream;base64,",
		"byteLength":8336
	}],
	"materials":[{
		"pbrMetallicRoughness":{
			"baseColorFactor":[0.04,
			0.04,
			0.04,
			0],
			"metallicFactor":0.04,
			"roughnessFactor":0
		},
		"emissiveFactor":[0.49,
		0.49,
		0.49],
		"alphaMode":"BLEND",
		"doubleSided":true,
		"name":"Glass-Frozen"
	},
	{
		"pbrMetallicRoughness":{
			"baseColorFactor":[0.961,
			0.208,
			0,
			1],
			"metallicFactor":1,
			"roughnessFactor":0
		},
		"emissiveFactor":[1,
		0.217,
		0],
		"alphaMode":"OPAQUE",
		"doubleSided":true,
		"name":"Mat"
	},
	{
		"pbrMetallicRoughness":{
			"baseColorFactor":[1,
			0.923,
			0.85,
			1],
			"metallicFactor":1,
			"roughnessFactor":1
		},
		"emissiveFactor":[0,
		0,
		0],
		"alphaMode":"OPAQUE",
		"doubleSided":true,
		"name":"Mat.2"
	},
	{
		"pbrMetallicRoughness":{
			"baseColorFactor":[0.99,
			0.99,
			0.99,
			0.019],
			"metallicFactor":1,
			"roughnessFactor":0
		},
		"emissiveFactor":[0,
		0,
		0],
		"alphaMode":"BLEND",
		"doubleSided":true,
		"name":"Mat.1"
	}]
}